<?xml version="1.0" encoding="utf-8"?>
<!-- Generator: Adobe Illustrator 28.1.0, SVG Export Plug-In . SVG Version: 6.00 Build 0)  -->
<svg version="1.1" id="Capa_1" xmlns="http://www.w3.org/2000/svg" xmlns:xlink="http://www.w3.org/1999/xlink" x="0px" y="0px"
	 viewBox="0 0 80.5 27.2" style="enable-background:new 0 0 80.5 27.2;" xml:space="preserve">
<style type="text/css">
	.st0{fill:#FFFFFF;}
</style>
<g>
	<g>
		<path class="st0" d="M5.6,22.8c0.2,0,0.4-0.2,0.4-0.4c0-0.2-0.2-0.4-0.4-0.4c-0.2,0-0.4,0.2-0.4,0.4C5.2,22.6,5.3,22.8,5.6,22.8"
			/>
		<path class="st0" d="M38.7,26.1c0.2,0,0.4-0.2,0.4-0.4c0-0.2-0.2-0.4-0.4-0.4c-0.2,0-0.4,0.2-0.4,0.4C38.3,26,38.4,26.1,38.7,26.1
			"/>
		<path class="st0" d="M18.4,23.5L18.4,23.5c0-0.5-0.2-0.9-0.5-1.2l0,0l0,0h0c-0.3-0.2-0.7-0.4-1.1-0.4c0,0,0,0,0,0c0,0,0,0,0,0l0,0
			c0,0,0,0,0,0c0,0,0,0,0,0l0,0c0,0,0,0,0,0h0c0,0,0,0,0,0c0,0,0,0,0,0c-0.5,0-0.8,0.1-1.1,0.4h0l0,0c-0.3,0.3-0.5,0.7-0.5,1.2l0,0
			l0,0l0,2.5c0,0,0,0.1,0,0.1c0,0,0.1,0,0.1,0h0.4c0,0,0.1,0,0.1,0c0,0,0-0.1,0-0.1l0-2.4c0-0.3,0.1-0.6,0.3-0.8
			c0.2-0.2,0.4-0.2,0.7-0.3c0.3,0,0.6,0.1,0.7,0.3c0.2,0.2,0.3,0.4,0.3,0.8l0,2.4c0,0,0,0.1,0,0.1c0,0,0.1,0,0.1,0h0.4
			c0,0,0.1,0,0.1,0c0,0,0-0.1,0-0.1L18.4,23.5z"/>
		<path class="st0" d="M33.8,23.5L33.8,23.5c0-0.5-0.2-0.9-0.5-1.2l0,0l0,0h0C33,22.1,32.6,22,32.1,22c0,0,0,0,0,0c0,0,0,0,0,0l0,0
			c0,0,0,0,0,0c0,0,0,0,0,0l0,0c0,0,0,0,0,0h0c0,0,0,0,0,0c0,0,0,0,0,0c-0.5,0-0.8,0.1-1.1,0.4h0l0,0c-0.3,0.3-0.5,0.7-0.5,1.2l0,0
			l0,0l0,2.5c0,0,0,0.1,0,0.1c0,0,0.1,0,0.1,0H31c0,0,0.1,0,0.1,0c0,0,0-0.1,0-0.1l0-2.4c0-0.3,0.1-0.6,0.3-0.8
			c0.2-0.2,0.4-0.2,0.7-0.3c0.3,0,0.6,0.1,0.7,0.3c0.2,0.2,0.3,0.4,0.3,0.8l0,2.4c0,0,0,0.1,0,0.1c0,0,0.1,0,0.1,0h0.4
			c0,0,0.1,0,0.1,0c0,0,0-0.1,0-0.1L33.8,23.5z"/>
		<path class="st0" d="M25.5,24.1L25.5,24.1L25.5,24.1L25.5,24.1c0,0.4,0,0.8-0.2,1.1c-0.1,0.3-0.4,0.4-0.8,0.4c0,0,0,0,0,0h0
			c-0.5,0-0.7-0.2-0.9-0.4c-0.2-0.3-0.2-0.7-0.2-1.1v0c0-0.4,0-0.7,0.2-1c0.1-0.3,0.4-0.4,0.9-0.4h0h0h0c0.5,0,0.7,0.2,0.9,0.4
			C25.5,23.3,25.5,23.7,25.5,24.1L25.5,24.1z M25.7,22.4C25.7,22.4,25.7,22.4,25.7,22.4C25.4,22.2,25,22,24.5,22c0,0,0,0,0,0
			c-0.4,0-0.8,0.1-1.1,0.4l0,0v-0.2h0v-1.2c0,0,0-0.1,0-0.1c0,0-0.1,0-0.1,0h-0.4c0,0-0.1,0-0.1,0c0,0,0,0.1,0,0.1v1.2h0v2.6h0V26
			c0,0,0,0.1,0,0.1c0,0,0.1,0,0.1,0h0.4c0,0,0.1,0,0.1,0c0,0,0-0.1,0-0.1v-0.3c0.3,0.3,0.7,0.4,1.1,0.4h0c0.5,0,0.9-0.1,1.1-0.4
			c0.5-0.4,0.6-1.1,0.6-1.7C26.2,23.4,26.1,22.8,25.7,22.4"/>
		<path class="st0" d="M13.9,24.6c0,0.3-0.1,0.5-0.2,0.6c-0.2,0.2-0.5,0.2-0.9,0.2h0h0c-0.3,0-0.6-0.1-0.7-0.2
			c-0.1-0.1-0.2-0.2-0.2-0.4v0c0-0.2,0.1-0.3,0.2-0.4c0.1-0.1,0.3-0.2,0.7-0.2h0h1.1V24.6z M14.6,23.4L14.6,23.4
			c0-0.4-0.1-0.8-0.4-1c-0.3-0.2-0.7-0.4-1.3-0.4h0h0c-0.6,0-1,0.1-1.4,0.5l0,0l0,0c0,0-0.1,0.1-0.1,0.1c0,0,0,0,0,0l0,0
			c0,0,0,0.1,0,0.1c0,0,0,0.1,0,0.1l0,0c0,0,0,0,0,0l0.1,0.1l0.2,0.2c0,0,0.1,0,0.1,0c0,0,0.1,0,0.1,0l0.1-0.2h0
			c0.1-0.1,0.2-0.2,0.3-0.2c0.1-0.1,0.3-0.1,0.6-0.1h0l0,0c0.4,0,0.6,0.1,0.8,0.2c0.1,0.1,0.2,0.3,0.2,0.6c0,0,0,0,0,0v0.3h-1.1
			c-0.5,0-0.8,0.1-1.1,0.3c-0.3,0.2-0.4,0.5-0.4,0.9l0,0c0,0.3,0.1,0.6,0.3,0.8c0.3,0.3,0.7,0.4,1.3,0.4h0h0.3
			c0.5,0,0.9-0.1,1.2-0.4c0.2-0.3,0.3-0.6,0.3-1.1L14.6,23.4L14.6,23.4z"/>
		<path class="st0" d="M27.3,24.9L27.3,24.9c0-0.2,0.1-0.4,0.2-0.4c0.1-0.1,0.3-0.2,0.7-0.2h0h1.1v0.3c0,0.3-0.1,0.5-0.2,0.6
			c-0.2,0.2-0.5,0.2-0.9,0.2h0h0c-0.3,0-0.6-0.1-0.7-0.2C27.3,25.2,27.3,25.1,27.3,24.9 M29.9,23.4L29.9,23.4c0-0.4-0.1-0.8-0.4-1
			c-0.3-0.2-0.7-0.4-1.3-0.4h0h0c-0.6,0-1,0.1-1.4,0.5l0,0l0,0c0,0-0.1,0.1-0.1,0.1c0,0,0,0,0,0l0,0c0,0,0,0.1,0,0.1
			c0,0,0,0.1,0,0.1l0,0c0,0,0,0,0,0l0.1,0.1l0.2,0.2c0,0,0.1,0,0.1,0c0,0,0.1,0,0.1,0l0.1-0.2v0c0.1-0.1,0.2-0.2,0.3-0.2
			c0.1-0.1,0.3-0.1,0.6-0.1l0,0l0,0c0.4,0,0.6,0.1,0.8,0.2c0.1,0.1,0.2,0.3,0.2,0.6c0,0,0,0,0,0v0.3h-1.1c-0.5,0-0.8,0.1-1.1,0.3
			c-0.3,0.2-0.4,0.5-0.4,0.9l0,0c0,0.3,0.1,0.6,0.3,0.8c0.3,0.3,0.7,0.4,1.3,0.4h0h0.3c0.5,0,0.9-0.1,1.2-0.4
			c0.2-0.3,0.3-0.6,0.3-1.1L29.9,23.4L29.9,23.4z"/>
		<path class="st0" d="M7.8,22H7.1l0-0.8h0l0-0.4c0-0.1-0.1-0.1-0.1-0.1H6.5c0,0-0.1,0-0.1,0c0,0,0,0.1,0,0.1v0.7h0v3.5
			c0,0.3,0.1,0.5,0.3,0.7c0.2,0.2,0.5,0.3,0.8,0.3h0h0.2v0h0.2c0,0,0.1,0,0.1,0c0,0,0-0.1,0-0.1v-0.4c0,0,0-0.1,0-0.1
			c0,0-0.1,0-0.1,0H7.5c-0.1,0-0.1,0-0.2,0c0,0-0.1,0-0.1,0c0,0,0,0-0.1,0c-0.1-0.1-0.1-0.2-0.1-0.3v-2.3h0.7c0,0,0.1,0,0.1,0
			c0,0,0-0.1,0-0.1v-0.4C7.9,22.1,7.9,22.1,7.8,22C7.9,22,7.8,22,7.8,22"/>
		<path class="st0" d="M11,22.5L11,22.5C11,22.5,11,22.5,11,22.5L11,22.5L11,22.5l-0.1-0.1l0,0l0,0C10.6,22.1,10.3,22,10,22
			c0,0,0,0,0,0c-0.2,0-0.5,0.1-0.7,0.3l-0.1,0.1v-0.1v-0.3c0,0,0-0.1,0-0.1c0,0-0.1,0-0.1,0H8.6c0,0-0.1,0-0.1,0c0,0,0,0.1,0,0.1
			v0.3V26c0,0,0,0.1,0,0.1c0,0,0.1,0,0.1,0h0.1c0,0,0,0,0,0h0.3c0,0,0,0,0,0H9c0,0,0.1,0,0.1,0c0,0,0-0.1,0-0.1v-0.1c0,0,0,0,0,0
			v-2.3c0,0,0,0,0,0v-0.2c0-0.2,0.1-0.4,0.2-0.5c0.1-0.1,0.3-0.2,0.5-0.2c0.1,0,0.2,0,0.3,0c0.1,0,0.1,0.1,0.2,0.2l0,0l0.1,0.1
			c0,0,0.1,0,0.1,0c0,0,0.1,0,0.1,0l0.3-0.3C11,22.7,11,22.6,11,22.5C11,22.6,11,22.5,11,22.5"/>
		<path class="st0" d="M21.9,24C21.9,24,21.9,24,21.9,24L21.9,24c-0.3-0.2-0.6-0.2-0.9-0.3l-0.6-0.1c-0.3,0-0.4-0.1-0.5-0.2
			c-0.1-0.1-0.1-0.2-0.1-0.3v0h0l0,0c0-0.2,0.1-0.3,0.2-0.4c0.1-0.1,0.4-0.2,0.7-0.2h0h0c0.4,0,0.7,0.1,1,0.3l0,0l0.2,0.1
			c0,0,0.1,0,0.1,0c0,0,0.1,0,0.1-0.1l0.2-0.4c0,0,0-0.1,0-0.1c0,0,0,0,0-0.1c0,0,0,0,0,0l0,0c-0.4-0.3-0.9-0.4-1.5-0.4
			c-0.5,0-0.9,0.1-1.1,0.3c-0.3,0.2-0.5,0.5-0.5,0.9l0,0v0l0,0c0,0.3,0.1,0.6,0.4,0.8c0.2,0.2,0.6,0.3,1,0.3l0.7,0.1
			c0.2,0,0.4,0.1,0.5,0.2c0.1,0.1,0.1,0.2,0.1,0.3v0v0c0,0.2-0.1,0.3-0.2,0.4c-0.2,0.1-0.4,0.2-0.8,0.2h0c0,0,0,0,0,0h0
			c-0.5,0-0.8-0.1-1.1-0.3L19.3,25c0,0-0.1,0-0.1,0c0,0-0.1,0-0.1,0l-0.3,0.3c0,0,0,0.1,0,0.1c0,0,0,0.1,0,0.1l0.1,0.1l0,0
			c0,0,0,0,0,0l0,0l0,0c0.4,0.3,0.9,0.4,1.5,0.4h0c0.5,0,0.9-0.1,1.3-0.3c0.3-0.2,0.5-0.5,0.5-0.9v0C22.3,24.5,22.2,24.2,21.9,24"/>
		<path class="st0" d="M37.9,26l-0.5-0.8l-1.1-1.6l0.8-0.9l0.5-0.5l0,0c0.1-0.1,0-0.1,0-0.1c0,0-0.1,0-0.1,0H37c0,0-0.1,0-0.1,0
			c0,0,0,0,0,0l-1.9,2v-1.7v-1.5c0,0,0-0.1,0-0.1c0,0-0.1,0-0.1,0h-0.4c0,0-0.1,0-0.1,0c0,0,0,0.1,0,0.1v1.5V26c0,0,0,0.1,0,0.1
			c0,0,0.1,0,0.1,0h0.4c0,0,0.1,0,0.1,0c0,0,0-0.1,0-0.1v-1l0.8-0.9l0.6,0.8h0l0.8,1.2c0,0,0,0.1,0.1,0.1h0.6c0,0,0.1,0,0.1,0
			C37.9,26.1,37.9,26,37.9,26"/>
		<path class="st0" d="M33,20.8L33,20.8l0.2,0.3l0.1-0.3h0.1v0.4h-0.1v-0.2c0,0,0,0,0,0c0,0,0,0,0-0.1l-0.1,0.3h-0.1L33,20.8
			L33,20.8l0,0.1c0,0,0,0,0,0v0.2H33V20.8z"/>
		<path class="st0" d="M33.8,21C33.8,21,33.9,21,33.8,21C33.9,20.9,33.9,20.9,33.8,21c0.1-0.1,0.1-0.1,0-0.1c0,0,0,0,0,0h-0.1V21
			H33.8z M33.6,20.8h0.2c0,0,0.1,0,0.1,0c0,0,0.1,0,0.1,0.1c0,0,0,0,0,0.1c0,0,0,0,0,0c0,0,0,0,0,0c0,0,0,0,0,0.1l0,0.1c0,0,0,0,0,0
			c0,0,0,0,0,0v0h-0.1c0,0,0,0,0,0c0,0,0,0,0,0l0-0.1c0,0,0,0,0-0.1c0,0,0,0,0,0h-0.1v0.2h-0.1V20.8z"/>
		<path class="st0" d="M33.5,21.2C33.5,21.2,33.5,21.2,33.5,21.2C33.5,21.1,33.5,21.1,33.5,21.2C33.5,21.1,33.6,21.1,33.5,21.2
			C33.6,21.2,33.5,21.2,33.5,21.2"/>
		<path class="st0" d="M34.1,21.2C34,21.2,34,21.2,34.1,21.2C34,21.1,34,21.1,34.1,21.2C34.1,21.1,34.1,21.1,34.1,21.2
			C34.1,21.2,34.1,21.2,34.1,21.2L34.1,21.2z"/>
	</g>
	<g>
		<path class="st0" d="M42.5,10.9L42.5,10.9L42.5,10.9L42.5,10.9c0,1.2-0.1,2.4-0.6,3.2c-0.4,0.8-1.1,1.3-2.5,1.3c0,0,0,0-0.1,0h0
			c-1.4,0-2.1-0.5-2.5-1.3c-0.5-0.8-0.6-2-0.6-3.2v-0.1c0-1.2,0.1-2.1,0.6-2.9c0.4-0.8,1.2-1.3,2.5-1.3h0h0h0c1.4,0,2.1,0.5,2.5,1.3
			C42.4,8.7,42.5,9.6,42.5,10.9L42.5,10.9z M42.9,5.9C42.9,5.9,42.9,5.9,42.9,5.9c-0.8-0.7-2-1.1-3.4-1.1c0,0,0,0-0.1,0
			c-1.1,0-2.3,0.2-3.2,1.1l0,0V5.1h0V1.4c0-0.1,0-0.2-0.1-0.3C36,1,35.9,1,35.8,1h-1.3c-0.1,0-0.2,0-0.3,0.1
			c-0.1,0.1-0.1,0.2-0.1,0.3v3.7h0V13h0v3.7c0,0.1,0,0.2,0.1,0.3c0.1,0.1,0.2,0.1,0.3,0.1h1.3c0.1,0,0.2,0,0.3-0.1
			c0.1-0.1,0.1-0.2,0.1-0.3v-0.8c0.9,1,2.1,1.3,3.2,1.3h0.1c1.4,0,2.6-0.4,3.3-1.1c1.4-1.3,1.7-3.3,1.7-5.2
			C44.6,9,44.2,7.2,42.9,5.9"/>
		<path class="st0" d="M54.4,11.1c0,1.2-0.1,2.1-0.6,2.9c-0.4,0.8-1.2,1.3-2.5,1.3h0h0h0c-1.4,0-2.1-0.5-2.5-1.3
			c-0.5-0.8-0.6-1.8-0.6-2.9V11c0-1.2,0.1-2.3,0.6-3.2c0.4-0.8,1.2-1.3,2.5-1.3h0c0,0,0,0,0.1,0c1.4,0,2.1,0.5,2.5,1.3
			C54.3,8.7,54.4,9.8,54.4,11.1L54.4,11.1L54.4,11.1L54.4,11.1L54.4,11.1z M54.8,16c1.4-1.3,1.7-3.1,1.7-5c0-1.9-0.3-3.9-1.7-5.2
			c-0.7-0.7-1.9-1.1-3.3-1.1h-0.1c-1.1,0-2.4,0.3-3.2,1.3V5.3c0-0.1,0-0.2-0.1-0.3c-0.1-0.1-0.2-0.1-0.3-0.1h-1.3
			c-0.1,0-0.2,0-0.3,0.1C46.1,5.1,46,5.2,46,5.3V9h0v7.9h0v3.7c0,0.1,0,0.2,0.1,0.3c0.1,0.1,0.2,0.1,0.3,0.1h1.3
			c0.1,0,0.2,0,0.3-0.1c0.1-0.1,0.1-0.2,0.1-0.3v-3.7h0v-0.7l0,0c1,0.8,2.1,1.1,3.2,1.1c0,0,0.1,0,0.1,0C52.8,17.2,54,16.8,54.8,16
			C54.8,16.1,54.8,16.1,54.8,16"/>
		<path class="st0" d="M73.4,18.2c-0.1,0.3-0.3,0.8-0.5,1.1c0,0-0.2,0.5-0.6,0.9c-0.3,0.3-0.7,0.5-1.1,0.7C70.8,21,70.6,21,70.6,21
			c-0.3,0-0.8,0-1.1,0c-0.3,0-0.5-0.3-0.5-0.6v-0.9c0-0.3,0.1-0.6,0.3-0.6c0.2,0,0.6,0,0.9-0.1c0,0,0.2,0,0.5-0.2
			c0.2-0.2,0.3-0.4,0.3-0.4c0.1-0.3,0.3-0.8,0.4-1.1l0.2-0.7c0.1-0.3,0.1-0.8,0-1.1l-3.6-9.9c-0.1-0.3,0.1-0.6,0.4-0.6h1.3
			c0.3,0,0.7,0.3,0.8,0.6l2.4,7c0.1,0.3,0.3,0.3,0.4,0l2.3-7c0.1-0.3,0.5-0.6,0.8-0.6h1.3c0.3,0,0.5,0.3,0.4,0.6L73.4,18.2z"/>
		<path class="st0" d="M59.6,13.5L59.6,13.5c0-0.7,0.2-1,0.6-1.3c0.4-0.3,1-0.5,2-0.5h0h3.2v1c0,1-0.2,1.5-0.5,1.8
			c-0.7,0.6-1.5,0.7-2.6,0.7h0h0c-1,0-1.7-0.2-2-0.4C59.8,14.5,59.6,14.1,59.6,13.5 M67.5,8.9L67.5,8.9c0-1.2-0.4-2.3-1.3-3
			c-0.9-0.7-2.1-1-3.7-1h-0.1h0c-1.7,0-3,0.4-4,1.4l0,0l-0.1,0.1c-0.1,0.1-0.2,0.2-0.2,0.3c0,0,0,0,0,0l-0.1,0.1
			c-0.1,0.1-0.1,0.2-0.1,0.3c0,0.1,0.1,0.2,0.1,0.3l0.1,0.1c0,0,0,0.1,0.1,0.1l0.2,0.2L59,8.1c0.1,0.1,0.2,0.1,0.3,0.1
			c0.1,0,0.2,0,0.3-0.1l0.4-0.5v0c0.2-0.3,0.5-0.5,0.8-0.6c0.4-0.2,1-0.3,1.8-0.3l0,0l0,0c1.1,0,1.8,0.2,2.2,0.6
			c0.4,0.3,0.6,0.9,0.6,1.7c0,0,0,0,0,0v0.8H62c-1.3,0-2.5,0.3-3.3,0.9c-0.8,0.6-1.3,1.6-1.3,2.7l0,0c0,0.9,0.3,1.8,1,2.5
			c0.9,0.8,2,1.1,3.7,1.1h0H63c1.6,0,2.7-0.4,3.4-1.2c0.7-0.8,1-1.9,1-3.3L67.5,8.9L67.5,8.9z"/>
		<path class="st0" d="M20.7,4.9c-0.3,0-0.7,0.3-0.8,0.6l-2.3,8c-0.1,0.3-0.3,0.3-0.4,0l-2.6-8c-0.1-0.3-0.5-0.6-0.8-0.6h-0.5
			c-0.3,0-0.7,0.3-0.8,0.6l-2.6,8c-0.1,0.3-0.3,0.3-0.4,0l-2.3-8C7.2,5.2,6.9,4.9,6.5,4.9h-1C5.2,4.9,5,5.2,5.1,5.5l3.5,11
			c0.1,0.3,0.5,0.6,0.8,0.6h0.7c0.3,0,0.6-0.2,0.7-0.5l2.6-7.8c0.1-0.3,0.3-0.3,0.4,0l2.6,7.7c0.1,0.3,0.5,0.6,0.8,0.6h0.6
			c0.3,0,0.7-0.2,0.8-0.6l3.5-11.1c0.1-0.3-0.1-0.6-0.4-0.6H20.7z"/>
		<path class="st0" d="M32.6,10.6c0-3.6-1.9-5.9-5-5.9c-3.1,0-5,2.3-5,6.2c0,4,1.9,6.2,5.3,6.2c2.1,0,3.3-0.7,4.4-1.9l0.2-0.2
			L31,13.8L30.9,14c-0.9,0.9-1.7,1.3-2.9,1.3c-2,0-3.2-1.3-3.2-3.6h7.9V10.6z M24.7,9.9c0-0.8,0.1-1.1,0.3-1.7
			c0.4-1,1.4-1.6,2.6-1.6c1.1,0,2.1,0.6,2.6,1.6c0.2,0.6,0.3,0.9,0.3,1.7H24.7z"/>
		<path class="st0" d="M2.5,7.4c0.7,0,1.2-0.6,1.2-1.3S3.2,4.9,2.5,4.9c-0.7,0-1.2,0.6-1.2,1.3S1.8,7.4,2.5,7.4"/>
		<path class="st0" d="M78,17.1c0.7,0,1.2-0.6,1.2-1.2c0-0.7-0.6-1.3-1.2-1.3c-0.7,0-1.2,0.6-1.2,1.3C76.8,16.5,77.3,17.1,78,17.1"
			/>
	</g>
</g>
</svg>
